<svg width="120" height="32" viewBox="0 0 120 32" fill="none" xmlns="http://www.w3.org/2000/svg">
  <defs>
    <linearGradient id="klyra-gradient" x1="0%" y1="0%" x2="100%" y2="0%">
      <stop offset="0%" style="stop-color:#6C5CE7;stop-opacity:1" />
      <stop offset="100%" style="stop-color:#22D3EE;stop-opacity:1" />
    </linearGradient>
  </defs>
  
  <!-- K -->
  <path d="M8 6V26H12V18L18 26H23L16 17L22.5 6H18L13 14V6H8Z" fill="url(#klyra-gradient)"/>
  
  <!-- L -->
  <path d="M28 6V22H38V26H24V6H28Z" fill="url(#klyra-gradient)"/>
  
  <!-- Y -->
  <path d="M44 6L48 14L52 6H57L51 18V26H47V18L41 6H44Z" fill="url(#klyra-gradient)"/>
  
  <!-- R -->
  <path d="M63 6V26H67V18H71L75 26H80L75.5 17.5C77.5 16.5 78.5 14.5 78.5 12C78.5 8.5 75.5 6 72 6H63ZM67 10H72C73 10 74.5 10.5 74.5 12C74.5 13.5 73 14 72 14H67V10Z" fill="url(#klyra-gradient)"/>
  
  <!-- A -->
  <path d="M86 6L92 26H88L87 22H83L82 26H78L84 6H86ZM85 10.5L84 18H86L85 10.5Z" fill="url(#klyra-gradient)"/>
  
  <!-- Accent dot -->
  <circle cx="110" cy="12" r="3" fill="#22D3EE"/>
</svg>